<svg width="300" height="300" viewBox="0 0 300 300" fill="none" xmlns="http://www.w3.org/2000/svg"><path d="M135.44 260.24q-11.61 0-23.22-3.78-11.34-4.05-20.52-11.88l9.18-24.84a43 43 0 0 0 9.72 7.29q5.67 2.7 12.15 4.05t12.69 1.35q12.15.27 19.17-5.94t7.02-18.09V94.46h-41.04V68h71.28v140.4q0 24.57-15.39 38.34-15.12 13.5-41.04 13.5" fill="#f8fafc"/><path d="M67.5 49.91q-11.34 0-16.2 4.59-4.59 4.32-4.59 14.58v63.72q0 14.31-4.86 20.52t-15.93 9.45q11.07 2.97 15.93 9.18 5.13 6.21 5.13 20.52v63.45q0 10.53 4.59 14.85t15.93 4.32v18.09q-23.49 0-33.21-9.18t-9.72-29.16v-62.1q0-10.8-4.05-15.39t-13.23-4.59v-20.25q9.45 0 13.23-4.59 4.05-4.86 4.05-15.66v-62.1q0-19.98 9.72-28.89 9.72-9.18 33.21-9.18zm165.84-17.82q23.49 0 33.21 9.18 9.99 8.91 9.99 28.89v62.1q0 10.8 3.78 15.66 4.05 4.59 13.5 4.59v20.25q-9.18 0-13.23 4.59t-4.05 15.39v62.1q0 19.98-9.99 29.16-9.72 9.18-33.21 9.18v-18.09q11.34 0 15.93-4.32 4.86-4.32 4.86-14.85v-63.45q0-14.31 4.86-20.25 4.86-6.21 16.2-9.45-11.34-3.24-16.2-9.45t-4.86-20.52V69.08q0-10.26-4.86-14.58-4.59-4.59-15.66-4.59z" fill="#2287ff"/></svg>